<svg version="1.2" xmlns="http://www.w3.org/2000/svg" viewBox="0 0 2800 708" width="791" height="200"><style>.a{fill:#1bd760}.b{fill:#fff}</style><path fill-rule="evenodd" class="a" d="m360.5 6.5c13.2 0.2 29.8 1.1 37 1.9 7.1 0.9 17 2.2 22 3.1 4.9 0.9 16 3.4 24.5 5.6 8.5 2.2 20.2 5.6 26 7.5 5.8 2 15.7 5.8 22 8.5 6.3 2.7 18.2 8.4 26.5 12.7 8.2 4.3 19.5 10.7 25 14.2 5.5 3.5 13.1 8.6 17 11.4 3.8 2.7 11.7 8.8 17.5 13.5 5.8 4.7 16.8 14.8 24.6 22.6 7.7 7.7 18 18.7 22.8 24.5 4.8 5.8 12 15.2 16.1 21 4 5.8 10.3 15.3 13.9 21.2 3.6 6 9.7 17.1 13.6 24.8 3.8 7.7 9.2 19.5 11.9 26.2 2.7 6.8 6.5 17.5 8.6 23.8 2 6.3 5 16.9 6.6 23.5 1.6 6.6 3.8 17.4 4.9 24 1.2 6.6 2.7 19.9 3.5 29.5 0.8 9.6 1.5 22.4 1.5 28.5 0 6-0.5 17.1-1 24.5-0.6 7.4-1.7 18.7-2.6 25-0.8 6.3-2.8 17.6-4.4 25-1.5 7.4-4 17.5-5.4 22.5-1.3 4.9-4.3 14.2-6.6 20.5-2.3 6.3-6.8 17.6-10.2 25-3.3 7.4-8.9 18.9-12.5 25.5-3.6 6.6-9.9 17.2-14.1 23.5-4.1 6.3-10.5 15.5-14.2 20.5-3.7 4.9-12.4 15.3-19.3 23-6.9 7.7-17.4 18.3-23.3 23.5-5.8 5.2-14.5 12.6-19.3 16.4-4.7 3.7-12.7 9.7-17.6 13.1-5 3.5-13.3 8.9-18.5 12.1-5.2 3.2-14.9 8.6-21.5 12-6.6 3.3-19.4 9.1-28.5 12.7-9.1 3.6-23.5 8.6-32 11-8.5 2.5-21.4 5.7-28.5 7.1-7.2 1.4-18.6 3.4-25.5 4.3-10 1.4-19 1.8-45.5 1.7-25.8 0-35.5-0.4-44.5-1.8-6.3-0.9-16.2-2.6-22-3.7-5.8-1.1-15.7-3.3-22-5-6.3-1.6-16.9-4.8-23.5-7-6.6-2.3-17.6-6.6-24.5-9.6-6.9-3.1-16.1-7.3-20.5-9.5-4.4-2.2-11.2-5.8-15-8-3.9-2.2-9.9-5.9-13.5-8.1-3.6-2.3-10.3-6.8-15-10.1-4.7-3.3-12.8-9.4-18-13.6-5.2-4.1-13.4-11.3-18.4-16-4.9-4.7-11.9-11.7-15.7-15.5-3.7-3.9-11.2-12.4-16.6-19-5.4-6.6-13-16.7-16.9-22.5-3.9-5.8-9.7-14.8-12.9-20-3.2-5.2-8.6-15.1-12.1-22-3.4-6.9-8.5-18.1-11.4-25-2.8-6.9-7-18.6-9.4-26-2.4-7.4-5.8-20-7.6-28-1.7-8-4-20.1-5.1-27-1.6-9.5-2.2-19.6-2.6-42.5-0.4-20.5-0.2-33.8 0.7-42 0.6-6.6 2.1-17.4 3.1-24 1.1-6.6 3.5-18.3 5.4-26 1.9-7.7 5.4-19.9 7.8-27 2.4-7.2 5.7-16.2 7.2-20 1.5-3.9 6.1-13.8 10.1-22 4-8.3 10.4-20.2 14.2-26.5 3.8-6.3 9.7-15.6 13.2-20.5 3.4-5 8.2-11.5 10.5-14.5 2.3-3 8.2-10 13.1-15.5 4.8-5.5 12.7-13.8 17.4-18.4 4.7-4.6 13-12.3 18.5-17.1 5.5-4.7 14-11.7 19-15.4 4.9-3.7 14.4-10.2 21-14.4 6.6-4.2 17.4-10.4 24-13.8 6.6-3.5 17.1-8.6 23.2-11.3 6.2-2.8 17.9-7.3 26-10.1 8.2-2.7 20.9-6.5 28.3-8.4 7.4-1.9 20.5-4.6 29-6 8.5-1.4 20.2-3 26-3.5 5.8-0.5 21.3-0.8 34.5-0.6zm-135.5 189.5c-9.6 1.2-22.7 3-29 4.1-6.3 1.1-17.4 3.4-24.5 5-7.2 1.6-14.8 3.4-17 4-2.2 0.6-7.6 2.2-12 3.5-4.4 1.4-9.4 3.4-11 4.4-1.7 1-4.4 3.4-6.2 5.2-1.7 1.8-4.3 5.7-5.7 8.5-2.2 4.4-2.6 6.7-2.6 13.5 0 7.1 0.4 9.1 2.7 13.7 1.6 3.1 5 7.4 7.8 9.8 2.7 2.5 7.4 5.3 10.2 6.4 2.9 1 7.3 1.9 9.8 1.9 2.5 0 12.5-2 22.2-4.5 9.8-2.5 24.1-5.6 31.8-7 7.7-1.3 21.4-3.3 30.5-4.4 9.1-1.1 23.2-2.5 31.5-3.1 8.2-0.5 26.2-1 40-1 13.7 0 35.3 0.7 48 1.5 12.6 0.9 30 2.4 38.5 3.5 8.5 1.1 21.8 3.1 29.5 4.6 7.7 1.4 19.8 3.8 27 5.4 7.1 1.6 18.6 4.5 25.5 6.4 6.9 1.9 17.7 5.2 24 7.4 6.3 2.1 15.8 5.6 21 7.7 5.2 2.1 19.8 9 32.5 15.3 21.7 10.8 23.3 11.4 29 11.4 3.3 0 7.8-0.5 10-1.1 2.2-0.6 6.1-2.4 8.7-4.1 2.7-1.6 6.3-5.1 8-7.6 1.8-2.5 3.8-6 4.5-7.7 0.6-1.8 1.2-6.8 1.2-11.2 0.1-6.5-0.4-8.9-2.3-13-1.4-2.8-3.7-6.4-5.3-8.1-1.5-1.7-4.8-4.5-7.3-6.1-2.5-1.7-10.6-6.2-18-10.1-7.4-3.9-19.8-9.7-27.5-13-7.7-3.3-17.8-7.3-22.5-9-4.7-1.8-15-5.2-23-7.7-8-2.6-20.4-6.1-27.5-8-7.2-1.8-18.2-4.5-24.5-5.9-6.3-1.4-18.3-3.7-26.5-5-8.3-1.4-22.2-3.4-31-4.6-8.8-1.1-24.8-2.7-35.5-3.5-13.4-1-31.6-1.5-58-1.4-21.2 0.1-43.2 0.6-49 1-5.8 0.5-18.4 1.8-28 2.9zm9 119.5c-7.4 0.9-22.3 3.4-33 5.6-10.7 2.1-25 5.5-31.8 7.4-6.7 1.9-14.3 4.8-17 6.4-2.6 1.6-5.7 4.3-7 6-1.2 1.7-2.9 5-3.7 7.3-0.9 2.4-1.5 6.3-1.5 8.8 0 2.5 0.6 6.3 1.3 8.4 0.6 2.2 2.8 5.8 4.8 8 2 2.3 6 5.4 9 7 4 2.1 6.7 2.8 10.4 2.8 2.7-0.1 8.4-1 12.5-2.1 4.1-1.2 14.5-3.6 23-5.5 8.5-2 19.8-4.2 25-5 5.2-0.8 16.2-2.2 24.5-3.1 10.2-1 25.3-1.5 47-1.5 21.1 0 37.3 0.5 47.5 1.5 8.5 0.8 23.6 2.9 33.5 4.5 9.9 1.6 26.1 5 36 7.5 9.9 2.5 25.2 7 34 9.9 8.8 3 22.3 8.1 30 11.4 7.7 3.3 16.7 7.4 20 9.2 3.3 1.8 12 6.4 19.2 10.1 10.3 5.4 14.3 6.9 17.5 6.9 2.4 0 6.5-0.8 9.2-1.7 2.7-1 6.7-3.4 9-5.4 2.3-1.9 5.1-5.5 6.3-8 1.7-3.3 2.3-6.1 2.3-11.4q0-7-1.9-11c-1-2.2-3-5.2-4.5-6.8-1.4-1.5-5.6-4.7-9.4-7.1-3.7-2.4-14.4-8.2-23.7-12.9-9.4-4.7-22.4-10.8-29-13.5-6.6-2.8-18.1-7.1-25.5-9.7-7.4-2.5-21.8-6.8-32-9.6-10.2-2.7-26.4-6.5-36-8.4-9.6-1.9-26.5-4.6-37.5-6.1-17.9-2.3-24.2-2.6-59.5-2.9-21.7-0.2-43.1 0-47.5 0.5-4.4 0.5-14.1 1.7-21.5 2.5zm16 112.6c-5.8 0.6-16.8 1.9-24.5 3-7.7 1.1-21 3.3-29.5 5-8.5 1.6-18.9 3.8-23 5-4.1 1.1-8.7 2.9-10.3 4-1.5 1-3.9 4-5.4 6.6-2 3.6-2.7 6.2-2.7 10.3 0 4.1 0.7 6.7 2.7 10.2 1.5 2.7 4.4 5.9 6.4 7.3 2.1 1.4 5.6 2.8 7.8 3.1 2.6 0.4 11.3-0.8 25-3.5 11.5-2.2 28-4.9 36.5-6 8.5-1.1 20.4-2.5 26.5-3.2 6.2-0.6 25.1-1.2 43-1.2 27.4-0.1 34.4 0.2 48.7 2.1 9.3 1.2 22.8 3.4 30 4.8 7.3 1.4 15.8 3.2 18.8 4 3 0.9 11.8 3.6 19.5 6.1 7.7 2.5 17.6 6 22 7.8 4.4 1.8 11.6 5.1 16 7.2 4.4 2.2 14.2 7.2 21.7 11.1 11.8 6.1 14.5 7.2 18.8 7.2 2.9 0 6.6-0.8 8.7-1.9 2.1-1 5.2-3.4 6.9-5.2 1.6-1.9 3.6-5.2 4.3-7.4 0.8-2.2 1.2-6 1-8.5-0.3-2.6-1.6-6.3-3.2-8.8-1.5-2.4-5.2-5.8-8.5-7.9-3.1-2-12-7-19.7-10.9-7.7-4-19.2-9.5-25.5-12.2-6.3-2.7-17.6-7-25-9.5-7.4-2.5-19.6-6.2-27-8.1-7.4-2-17.1-4.3-21.5-5.1-4.4-0.9-15.7-2.7-25-4.1-15.5-2.3-20.5-2.6-57-2.9-22-0.2-41.4-0.2-43 0.1-1.7 0.2-7.7 0.9-13.5 1.5z"/><path class="b" d="m862.8 483.8q-16.4 0-31.6-3.6-15.2-3.6-28.8-8.8-13.6-5.6-24.8-12-11.2-6.8-18.8-13.2l27.6-42.8q16 12.8 35.6 21.6 20 8.4 39.2 8.4 11.2 0 21.6-1.6 10.4-2 18-6 8-4.4 12.8-10.8 4.8-6.8 4.8-16.8v-2q0-6.4-3.6-11.2-3.6-4.8-10.4-8.8-6.4-4-15.2-7.2-8.8-3.2-18.8-6.8l-22.4-8q-16-5.6-29.6-12.4-13.6-6.8-23.6-15.6-9.6-9.2-15.2-21.2-5.6-12-5.6-28.4v-2q0-18.8 7.2-33.6 7.2-14.8 20-25.2 13.2-10.4 30.8-15.6 18-5.6 39.2-5.6 16.8 0 31.2 3.6 14.4 3.2 26.4 8.8 12.4 5.2 22.4 12 10 6.4 17.6 12.4l-30.8 40.8q-16.8-12.8-33.2-20-16-7.2-33.6-7.2-20 0-32.4 7.6-12 7.6-12 21.2v2q0 6.8 4 11.6 4 4.8 10.4 8.4 6.8 3.2 14.8 6 8.4 2.8 16.8 5.6l24 8.4q17.2 6 30.8 13.2 14 7.2 23.2 16.8 9.6 9.2 14.4 21.2 5.2 12 5.2 28v1.2q0 20-8 36.4-7.6 16-21.6 27.6-14 11.2-34 17.6-19.6 6-44 6zm138.8 75.2v-300.4h50v9.6q0 6-0.4 9.6 0 3.2-1.2 8l0.8 0.4q11.6-18.4 29.6-27.6 18-9.2 38-9.2 23.2 0 40.4 9.6 17.6 9.2 29.2 25.6 12 16 18 37.6 6 21.2 6 45.2v1.2q0 22-6.8 42.8-6.4 20.8-19.6 36.8-13.2 16-32.8 26-19.6 9.6-45.6 9.6-8.4 0-17.2-2-8.4-2-16.4-6-7.6-4.4-13.6-10.8-6-6.4-9.6-14.8l-0.8 0.4q1.6 7.6 2.4 14.8 0.8 6.8 0.8 14.4v79.2zm104.4-123.2q12.4 0 22.4-5.6 10.4-6 17.6-15.6 7.2-9.6 10.8-21.6 4-12 4-24.4v-1.2q0-14.4-3.6-27.2-3.2-12.8-10-22.4-6.4-9.6-16.4-15.2-9.6-5.6-22.8-5.6-12.8 0-23.2 5.6-10 5.2-17.6 14.8-7.6 9.2-11.6 22-4 12.8-4 28v1.2q0 14 3.6 26.4 3.6 12 10.4 21.2 6.8 8.8 16.8 14.4 10.4 5.2 23.6 5.2zm237.2 50.4q-26 0-45.6-9.2-19.6-9.6-32.8-25.6-13.2-16-20-36.8-6.4-21.2-6.4-44.8v-2q0-22.8 7.2-43.6 7.2-21.2 20.8-37.2 13.6-16 32.8-25.6 19.6-9.6 44-9.6 24.4 0 43.6 8.8 19.6 8.8 33.2 24.4 13.6 15.6 20.8 36.8 7.2 21.2 7.2 46v1.2q0 22-6.8 43.2-6.4 20.8-19.6 37.6-13.2 16.4-32.8 26.4-19.6 10-45.6 10zm0-48q12.8 0 22.8-5.6 10-6 16.8-15.6 6.8-9.6 10.4-22 3.6-12.4 3.6-25.2v-2q0-13.6-3.6-26-3.2-12.8-10-22-6.4-9.2-16.8-14.8-10-5.6-23.2-5.6-12.8 0-22.8 6-10 5.6-16.8 15.2-6.8 9.6-10.4 22.4-3.6 12.8-3.6 26.8v1.6q0 13.2 3.2 25.2 3.2 12 9.6 21.6 6.8 9.2 16.8 14.8 10.4 5.2 24 5.2zm205.6 45.6q-24.4 0-40-11.2-15.6-11.6-20.4-34-2-8-2.4-20 0-12.4 0-24v-87.6h-23.2v-48.4h24.8l7.6-64h42v64h59.2v48.4h-59.2v87.6q0 6.8 0 15.6 0.4 8.4 2 15.2 1.2 5.6 4.8 7.6 4 2 10.8 2 1.6 0 7.2-0.4 5.6-0.8 12-1.6 6.4-0.8 12.4-2 6.4-1.2 10-2v48.4q-3.6 0.8-10.4 2-6.8 0.8-14 2-7.2 0.8-14 1.6-6.4 0.8-9.2 0.8zm79.2-4.8v-220.4h52v220.4zm26-258q-12.8 0-21.2-8.4-8.4-8.8-8.4-21.2 0-12.8 8.4-21.6 8.4-8.8 21.2-8.8 12.4 0 21.2 8.8 8.8 8.8 8.8 21.6 0 12.4-8.8 21.2-8.8 8.4-21.2 8.4zm208.4 262.8q-30.8 0-56.4-11.2-25.6-11.2-44-30.4-18.4-19.2-28.8-44.8-10-25.6-10-54.8v-3.6q0-30 10-56 10.4-26.4 28.8-46 18.8-19.6 44-30.8 25.6-11.6 56.4-11.6 37.6 0 68.4 18.8 31.2 18.8 52 49.2l-41.2 29.6q-15.6-21.2-36-34-20-13.2-43.6-13.2-18.4 0-34.4 7.6-15.6 7.2-27.2 20.4-11.6 12.8-18.4 30-6.4 16.8-6.4 36v3.2q0 18.8 6.4 35.6 6.4 16.4 17.6 28.8 11.6 12.4 27.6 19.6 16 7.2 34.8 7.2 24 0 44-10.8 20.4-11.2 39.2-38.4l40 30q-20 32-50.8 50.8-30.8 18.8-72 18.8zm154.8-4.8v-292.4h51.2v292.4zm193.6 7.2q-26 0-45.6-9.2-19.6-9.6-32.8-25.6-13.2-16-20-36.8-6.4-21.2-6.4-44.8v-2q0-22.8 7.2-43.6 7.2-21.2 20.8-37.2 13.6-16 32.8-25.6 19.6-9.6 44-9.6 24.4 0 43.6 8.8 19.6 8.8 33.2 24.4 13.6 15.6 20.8 36.8 7.2 21.2 7.2 46v1.2q0 22-6.8 43.2-6.4 20.8-19.6 37.6-13.2 16.4-32.8 26.4-19.6 10-45.6 10zm0-48q12.8 0 22.8-5.6 10-6 16.8-15.6 6.8-9.6 10.4-22 3.6-12.4 3.6-25.2v-2q0-13.6-3.6-26-3.2-12.8-10-22-6.4-9.2-16.8-14.8-10-5.6-23.2-5.6-12.8 0-22.8 6-10 5.6-16.8 15.2-6.8 9.6-10.4 22.4-3.6 12.8-3.6 26.8v1.6q0 13.2 3.2 25.2 3.2 12 9.6 21.6 6.8 9.2 16.8 14.8 10.4 5.2 24 5.2zm140.8 40.8v-220.4h51.2q0 8.4-0.8 20-0.4 11.6-2.4 20.4l0.8 0.4q2.8-9.2 8.8-17.6 6-8.8 14.8-15.2 8.8-6.8 20-10.8 11.6-4 25.6-4 32.8 0 52.8 20 20 20 22 54.8 0.4 4 0.4 10 0 6 0 10.4v132h-52v-130.4q0-3.2 0-7.6 0-4.8-0.4-7.6-0.8-14-9.2-24-8-10-24.4-10-11.6 0-21.2 4.4-9.2 4-16.4 11.2-7.2 7.2-11.6 16.8-4 9.6-4.8 20.4-0.4 4-0.8 8.4 0 4 0 8v110.4zm335.6 7.2q-25.2 0-44.8-8.8-19.6-9.2-33.2-25.2-13.2-16-20-37.2-6.8-21.2-6.8-46v-1.2q0-22.8 7.6-43.6 7.6-21.2 21.6-37.2 14-16 33.6-25.6 19.6-9.6 43.2-9.6 25.2 0 44.4 9.6 19.6 9.2 32.4 25.2 13.2 16 20 37.2 6.8 21.2 6.8 44.8v18.8h-157.2q2 22.8 15.6 36.8 14 14 36.8 14 7.6 0 16.8-1.6 9.6-1.6 19.6-5.2 10.4-3.6 20.8-8.8 10.4-5.6 20-13.6l26.8 40.8q-23.2 18.8-49.6 27.6-26 8.8-54.4 8.8zm-50.8-144.8h101.6q-3.2-18-16-30-12.8-12-33.6-12-20 0-34 12-13.6 12-18 30z"/></svg>