<svg version="1.2" xmlns="http://www.w3.org/2000/svg" viewBox="0 0 747 747" width="747" height="747"><style>.a{fill:#2b8b4b}.b{fill:#f8db66}</style><path class="a" d="m654.7 730.2h-569.9v-523.7l285-191.5 284.9 191.5z"/><path fill-rule="evenodd" class="b" d="m406.4 438.4h-27.5c49.7-29.7 16.7-59.1 16.7-59.1 0 0 22.3 30.3-32.8 59.1h-52.1c14.3-31.9 42.6-41.7 42.6-41.7-37.2 5.8-58.2 39.6-59.4 41.7h-30.6v-46.7c6-8.5 15.9-17.6 31.5-26.7-7.3 3.2-13.7 6.4-19.2 9.5-6.1-9.9-25-49.3 34.6-76 12.2-5.5 24.3-8.4 34.8-7.9 5.2 9.1 12.5 18.6 22.6 26.3-3.5 14.3-13.5 34.1-32.5 48.9 0 0-12.8 0.1-20.6-9.1 0 0 3.2 10.6 21.1 16.3 24.1-19.3 35-37.4 39.3-51.3 1.3 0.8 2.7 1.6 4.1 2.3 20.2-8.6 21.3-24.6 21.3-24.6 0 0-9.3 13.3-21.9 17-0.7-0.4-1.4-0.8-2-1.2 1.8-9.6 0.3-16.4-1.4-18.7-5.8-8-14.5-12.5-24.4-14.2-6.3-14.6-8.3-27.7-8.3-27.7 0 0-11-5.1-10.5-5.8 5.4-8.3 11.8-13.9 18.7-17.6h-17.6c4.4-3.4 10.2-6.7 17.7-9.5 34.5-12.8 58.5 9.5 58.5 9.5h59.8v69.4c-9.9-0.2-22.2 2.5-36.7 8.6 17.1-2.6 29.3-1 36.7 4v47.3c-10.9 21.4-31.9 48.2-62.5 77.9zm-43.8 0.1q0.1 0 0.2-0.1h16.1zm-99.4-109.5v-97.7h69.5c-13.8 10.5-14.4 22-14.4 22 0.8 3.3 14.5 6.3 14.5 6.3 0 0 1.9 9.7 7.5 22-11.4 0.1-23.5 3.1-33.9 8.2-26.2 12.8-38.4 26.5-43.2 39.2zm92.6-36.5c4.4 1.5 8.2 3.7 11.5 6.9 1.5 1.4 2.1 5.1 1.6 10-5.3-4.9-9.7-10.8-13.1-16.9zm-80.7 82.3c-4.5 2.5-8.4 5-11.8 7.4v-26.9c3.2 9.2 8.8 16.2 11.8 19.5zm109.4-131.3c15-4.1 31.1-0.8 31.1-0.8 0 0-18.6-14.5-46.9-4.3zm-51.7 67.4c-65.9 17.3-40 45-40 45 0 0-6.6-22 40-45zm-39.1 64.4c24.7-15.4 14.9-45.8 14.9-45.8-3.4 25.9-15 45.9-14.9 45.8zm0.2 63.1h16.8q0 0 0 0.1h-16.9q0 0 0.1-0.1zm75.4-45.2c-18.6-7.3-12.6-25.6-2.5-34.1 10.1-8.5 21.6-5.9 25.3-1 8.7 11.6-2.4 23.8-2.4 23.8 8.9-8.1 13.9-19 6.4-29-5.2-7-21.1-10-34.8 1.8-17.5 15.1-13.9 39.2 8 38.5zm46.1-136.5c0 0-6.1-8.9-33-5l14.4 5.6c12.8-2.4 18.6-0.6 18.6-0.6zm-5.4 33.1c4.8 12.2 19.8 20.5 19.8 20.5 0 0-15.3-21.5-17.4-43.9 0 0-7.3 10.8-2.4 23.4zm58.9 98.4v50.3h-51.5c22-17.5 39-34.5 51.5-50.3zm-205.6 3.5c-0.4-8.5-16.1 1.9 0-9.5zm-20.6 20.6l20.6-20.5c-18.3 26 0 46.6 0 46.7 0 0-19.9-10-20.6-26.2zm226.2-24.1v-27.7c11.5-22.6 11.7-39.3 0-47.3v-12.6c35 0.8 39.5 38.1 0 87.6zm-62.5 50.3h11c-14.4 11.4-30.9 23.1-49.6 34.8 14.2-11.9 27.1-23.6 38.6-34.8zm-143.1-109.6v26.4c-2.6-7.6-3.5-16.7 0-26.4zm87.3-97.7h58.5c0 0-32.4-14-58.5 0z"/><path fill-rule="evenodd" class="b" d="m610.1 625.8v2.7l-0.7-0.1c-2.4-0.2-5.4-0.3-8.2-0.3-2.8 0-8.6 0.4-8.6 0.4l-0.2-0.4c-6.5-11-12.7-21.2-21-32.3h-7v10.7c0 1.6 0 3.5-0.1 5.7-0.1 2.1-0.1 3.9-0.1 4.4 0 2.9 0.2 4.8 1.3 5.6 2.2 1.5 10.2 4 10.2 4v2.3l-0.7-0.1c-5-0.5-10.1-0.7-15.3-0.7-5.2 0-10.6 0.2-16.1 0.7l-0.8 0.1 0.4-2.6c0 0 8.2-1.8 9-4.4 0.4-1.1 0.7-3.4 0.7-7v-38.6c0-4.8-0.1-8.1-0.2-8.8 0-3.7-11.2-5.5-11.2-5.5v-2.2l0.7 0.1c3.3 0.3 12.2 0.7 23.3 0.3q7.4-0.3 11.1-0.3c6.3 0 11.5 1.1 15.6 3.5 5.2 2.8 7.9 7.4 7.9 13.3 0.1 9.6-5.2 15.8-16.1 17.8q5.2 8.9 10.5 17.4c6 8.8 10.8 13.5 15 14.2zm-26.9-38.4c3.4-1.8 5.1-5 5.1-9.9-0.1-8.1-4.6-11.9-14.4-12-0.1 0-9.6 0.1-9.6 0.1v24h6.7c5.4 0 9.5-0.7 12.2-2.2z"/><path fill-rule="evenodd" class="b" d="m189.6 609.8c0 6.1-2.5 10.9-7.4 14.2-4.2 2.9-9.5 4.4-15.8 4.4-0.1 0-6.2-0.1-18.2-0.4-1.7 0-3.5 0-5.1 0-7.2-0.1-13.7 0.5-13.7 0.5v-2.5c0 0 8.8-1.4 10.8-5.7 0.8-1.7 0.5-51.5 0.4-52.2-0.9-4.9-11.2-6.3-11.2-6.3v-2.4c0 0 5.4 0.5 12 0.4 1.7-0.1 3.5-0.1 5.4-0.1 11-0.2 16.5-0.3 16.6-0.3 6.3 0 11.5 1.1 15.7 3.9 4.9 3.1 7.5 7.9 7.4 14 0 3.9-2.3 8.8-6.8 11.7-2.6 1.6-5 2.8-7.9 3.5 4.1 0.7 7.2 1.9 10.2 3.8 5.1 3.1 7.7 7.7 7.6 13.5zm-38.1-21h7.2c11.2-0.1 16-3.6 16.1-11.7-0.1-8.6-4.6-11.9-14.9-12-3.3 0-6.1 0.1-8.3 0.2-0.2 4.3-0.3 7.5-0.3 10.8zm26.3 21.2c0-9.3-6.2-13.8-19.6-13.9h-6.6v19.8c0 2 0 3.7 0.1 5.9 4.3 0.2 6.8 0.3 7 0.3h0.1c12.9-0.1 18.8-3.1 19-12.1zm-18.5 12.6c0 0 0.1 0.1 0 0z"/><path fill-rule="evenodd" class="b" d="m266.5 567.7c5.7 6.2 8.6 14.2 8.6 23.9 0 10.6-2.9 19.5-8.7 26.6-6.2 7.6-14.7 11.4-25.1 11.4-9.8 0-17.9-3.4-24.1-10.2-6-6.6-9-15-9-24.9 0-10.6 3.1-19.4 9.4-26.1 6.3-6.8 14.8-10.2 25.4-10.2 9.7 0 17.6 3.1 23.5 9.5zm-24.6-3.4q-9.9 0-15.6 7.8c-3.4 4.6-5.1 10.4-5.1 17.5 0 9.1 1.4 16.5 4.1 22.3 3.7 7.8 9.3 11.6 17.1 11.6 6.9 0 12-2.8 15.5-8.6 2.9-4.8 4.4-10.9 4.4-18.4-0.1-21.9-6.8-32.2-20.4-32.2z"/><path class="b" d="m331.1 620.9h-19.6v-43.7c0-5.3 0.1-8 0.2-9.3 0.3-4.4 11.9-6.2 11.9-6.2v-2.2c0 0-12 0.7-17.5 0.7-5.5 0-16.9-0.8-16.9-0.8v2.2c0 0 11.2 1.9 11.2 6.1 0.1 0.7 0.2 3.9 0.2 8.7v37c0 3.6 0.2 5.4-0.7 7.1-2.1 4.1-10.7 5.3-10.7 5.3v2.7h0.7c7.1-0.4 15.2-0.6 24-0.6 8.8 0 18.4 0.2 28.5 0.6h0.7l0.9-18.3h-2.9c0.1-0.1-1.4 11.1-10 10.7z"/><path class="b" d="m390.1 541.1c-0.1-3.1-2.7-5.2-5.3-5.2-1.9 0-3.5 1.1-5 2.6l-14.4 16.7h5.3l16.4-9.4c2-1.3 3-2.9 3-4.7z"/><path class="b" d="m373.5 560.3c-3.9 0-9.2-0.3-15.9-0.8l-0.7-0.1v2.3c0 0 9.3 2.1 10.5 6.9 0.6 2.3 0.3 6.4 0.5 10.7 0 0 0.3 15.9 0.2 24.5-0.1 11.6-0.5 16.7-3.5 19.1-2.6 2.1-7.7 2.8-7.7 2.8v2.8l0.7-0.1c6.2-0.6 11.6-0.8 15.9-0.8 3.8 0 9 0.3 15.5 0.8l0.7 0.1v-2.8c0 0-5.1-0.9-7.8-2.9-2-1.5-3.4-7.4-3.3-19 0-1.6 0.1-23.6 0.2-24.4 0.1-4.4 0.1-8.4 0.3-10.8 0.6-5.5 10.6-6.9 10.6-6.9v-2.3l-0.7 0.1c-6.9 0.5-12 0.8-15.5 0.8z"/><path class="b" d="m467.7 561.7l0.5-0.1v-2.3l-0.8 0.1c-3.1 0.4-6.4 0.6-10 0.6-3.5 0-7.3-0.2-11.3-0.6l-0.7-0.1v2.2l0.5 0.2c2.8 0.9 6.7 2.1 6.6 3.5-1.2 6.2-12.4 34.9-15.3 41.9-2.2-5.2-16.7-40.7-16.6-41.6 0 0-0.8-1.9 7.7-3.8l0.5-0.1v-2.3c0 0-9.6 0.7-14.2 0.7-11.5 0-14.9-0.7-14.9-0.7v2.2c0 0 6.8 1.7 8.7 6.2 7.1 16.1 15.3 36.8 24 61.4l0.2 0.4h3.3l0.2-0.4c6.5-17.7 20.2-53.2 24.3-61.7 1.4-2.8 3.8-4.9 7.3-5.7z"/><path fill-rule="evenodd" class="b" d="m525.1 613.9c0 0 2.2 6.5 3.7 8 2 2.1 8 3.7 8 3.7v2.7h-0.7c-5.5-0.4-10.8-0.6-16-0.6-5.2 0-10.2 0.2-14.8 0.6l-0.7 0.1v-2.8l0.5-0.1q5.1-1.2 9.6-3c-2.1-6.8-3.9-12.5-5.7-16.5l-13-0.1-11.5-0.1c-1.8 4.2-3.6 9.1-6.6 16.7l8.8 3.3v2.7l-0.7-0.1q-6-0.6-12-0.6-5.8 0-11.7 0.6l-0.7 0.1v-2.7c0 0 6.6-2 8.5-5.5 1.4-2.7 2.1-5 3.5-8.2 9-21.2 12.6-28.9 23.3-54.4l0.2-0.4h4.9l0.2 0.4c3.4 8.9 8.7 22 22.9 56.2zm-18.3-13.1l-9.9-26.1-10.4 26.2z"/><path class="b" d="m193.3 518.6c-0.9 1.9-1.5 2.1-1.5 2.1-1.3 0.6-3 1.1-4.8 1.1-4.2 0.1-7.8-1.4-9.6-3.7-2.3-3-3-6.4-3.2-10.3-0.2-4 0.9-7.4 3.1-10.2 2.1-2.7 5.7-4 10.1-4 3 0 4.2 0.4 5 1.3 1 1 2.2 5 2.2 5h1v-0.4c-0.1-1.5-0.1-3-0.1-4.4 0-1.4 0-2.8 0.1-4.2v-0.3l-0.3-0.1c-2.3-0.5-4.8-0.7-7.4-0.7-5.5 0-10.8 1.9-14.3 5-4.1 3.6-6.4 8-6.4 13.5 0 5.4 1.9 9.7 5.8 12.8 3.6 2.9 8 4.4 13.5 4.4 3.4 0 6-0.3 9-1.3l0.3-0.1c0 0-0.2-3.3-0.2-8.9h-1.1c0.2-0.1-0.6 2-1.2 3.4z"/><path fill-rule="evenodd" class="b" d="m228.7 494.9c2.9 3 4.3 7 4.3 11.9 0.1 5.3-1.4 9.8-4.3 13.3-3.1 3.8-7.3 5.7-12.5 5.7q-7.3 0-12-5.1c-3-3.3-4.5-7.4-4.5-12.4 0-5.3 1.6-9.6 4.7-13 3.2-3.4 7.4-5.1 12.7-5.1 4.8 0 8.8 1.6 11.6 4.7zm-12.2-1.5q-5 0-7.8 3.9c-1.7 2.3-2.5 5.2-2.5 8.7q0 6.8 2.1 11.1c1.8 3.9 4.6 5.8 8.5 5.8 3.4 0 5.9-1.4 7.7-4.3 1.5-2.4 2.2-5.5 2.2-9.2 0-10.9-3.4-16.1-10.2-16z"/><path fill-rule="evenodd" class="b" d="m270.4 491.3c-1 0.3-1.8 0.7-2.8 1-1.5 0.6-1.4 2.4-1.5 3.3-0.3 4.5-0.3 9.1-0.3 15.2 0 1.2 0 5.5 0.2 14.3h-3.1c-3.2-4.1-5.6-7.2-9.8-12.9-3.6-4.8-5.6-8-9.3-13.1l-0.5-0.8c0 0 0.1 7.9 0.1 11.2 0 2.9 0.1 9.3 0.4 11.9 0.5 2.2 3.2 2 4.3 2.3l0.1 1.1c-4.6-0.4-9.2-0.4-13.6 0v-1l2.5-0.8c2.4-0.6 2.3-8.7 2.3-17.6l-0.2-10c0-3.1-2.9-3.7-4.7-4.3l-0.1-0.9c3.3 0.4 7.4 0.4 10.5 0 2 3.7 5.1 8.5 8.9 13.6 3.1 4.1 5 6.6 8.2 10.7v-2.3c0 0-0.2-11.9-0.2-13.1 0-1.8-0.1-4.7-0.5-5.6-0.6-1.4-1.9-1.6-4.4-2.6v-0.8q6.3 0.6 13.5 0z"/><path class="b" d="m293.6 510.5l-0.3 0.2 0.3-0.2c-0.1-0.1-0.2-0.3-0.3-0.4-1-1.1-2.2-1.9-3.1-2.5-2.2-1.1-4-2-6.4-3.2-2.7-1.5-4-3.3-4-5.4 0-1.6 0.6-2.9 1.8-4 0.2-0.2 0.4-0.3 0.6-0.5 0 0 0 0 0.2-0.1q0.7-0.4 1.5-0.6c0.6-0.2 1.5-0.3 2.4-0.3 0.6 0 1.4 0 2.1 0.1 0.7 0.1 1.3 0.2 2.1 0.5l1.9 5.5h0.9l0.3-7.7-0.2-0.1c-2.5-1.1-5.1-1.7-7.8-1.7-3.1 0-5.8 0.8-8 2.4-2.5 1.8-3.8 4.3-3.8 7.3 0 1 0.2 1.9 0.5 2.8 1.1 2.6 3.4 4.2 4.5 4.9 0.2 0.1 0.3 0.2 0.4 0.3l0.2 0.1c2 1.1 3.6 2.3 5.8 3.4 2.8 1.6 4 3.3 4 5.2 0 0.7-0.1 1.3-0.2 1.9-1 3.3-4.7 3.6-4.8 3.6-0.9 0.1-1.7 0.2-2.5 0.2-3 0-5-1.1-5-1.2l-1.1-6.2-1.1 0.3-0.2 0.1-0.9 9 0.2 0.1q3.8 1.5 7.8 1.5c3.7 0 6.8-0.7 9.3-2.2 3.1-1.8 4.6-4.5 4.6-8-0.1-1.9-0.6-3.6-1.7-5.1z"/><path fill-rule="evenodd" class="b" d="m326.8 499.4h-0.8c-1.1-2.9-1.9-4.6-2.4-5.2-0.6-0.7-1.7-1-3.4-1-0.3 0-1.1 0-2.1 0.1-1 0-1.4 0.1-2.1 0.1v23.5c0 2.8 0.3 4 0.8 4.7 0.4 0.5 1.5 1.2 4.4 2.2v1q-8-0.6-15.9 0v-1c2.9-0.9 3.9-1.7 4.4-2.2 0.6-0.6 0.8-1.8 0.8-4.7v-23.5c-0.8 0-1.1 0-2.2-0.1-1.1 0-1.8-0.1-2.1-0.1-1.6 0-2.8 0.2-3.4 1-0.5 0.6-1.2 2.3-2.3 5.2h-0.8v-9.2q13.5 0.6 27 0v9.2z"/><path fill-rule="evenodd" class="b" d="m366.6 523.3v1.3h-0.4c-1.2-0.2-2.8-0.2-4.2-0.2-1.4 0-2.8 0.1-4.1 0.2l-0.3-0.2c-3.3-5.5-6.4-10.6-10.5-16.1h-3.5c0 0.8 0 7 0 8.1-0.1 1.1-0.1 2.2-0.1 2.5 0 1.4 0.3 2.1 0.8 2.5 1.3 1.1 5 2.1 5 2.1v1.1h-0.4c-2.5-0.2-5-0.3-7.6-0.3-2.6 0-5.3 0.1-8 0.3h-0.4l0.2-1.2c0 0 4.1-0.7 4.5-2.2 0.1-0.6 0.3-2 0.3-3.8v-19c0-2.3 0-3.8-0.1-4.1-0.5-2.3-5.6-2.7-5.6-2.7v-1.3h0.4c1.6 0.2 3.5 0.3 5.5 0.3 1.2 0 3.7 0 6.1-0.1 2.4-0.1 4.2-0.2 5.5-0.2q4.8 0 7.8 1.8c2.6 1.4 3.9 3.7 3.9 6.6 0 4.8-2.6 7.9-8 8.9 1.7 2.9 3.5 5.8 5.2 8.7 2.9 4.4 5.5 6.8 8 7zm-13.8-18.8c1.8-0.9 2.6-2.5 2.6-4.9-0.1-4.1-2.3-6-7.4-6h-4.6v11.9h3.4c2.7 0 4.8-0.4 6-1z"/><path class="b" d="m394.9 490.6c-2.3 0-4.6-0.1-6.8-0.3h-0.4v1.1c0 0 4.2 0.6 4.9 2.5 0.4 2.1 0.7 5.1 0.7 8.5 0 1.2 0 13.4-2 16-1.4 1.7-3.5 2.9-6.3 2.9-3.7 0-5.8-1-7.3-2.7-3.4-4.2-1.7-22.3-1.7-23.6 0-2.5 5.5-3.5 5.5-3.5v-1.2h-0.4c-2.7 0.2-5.5 0.3-8.3 0.3-2.8 0-5.5-0.1-8-0.3h-0.4v1.2c0 0 5.8 1.2 5.8 4 0 1-0.9 10.7-0.9 14.7 0.1 4.5 0.8 8 2.4 10.4 2.2 3.1 7 4.6 12.1 4.6 5.4 0 9.4-1.9 11.5-5.7 1.4-2.6 2-6.5 2-11.7 0-0.3 0-0.5 0-0.8 0-4-0.1-7-0.1-9.2 0-2.1 0-3.4 0.1-3.6 0.2-2.5 4.4-3 4.4-3v-1.1h-0.4c-1.9 0.4-4.1 0.5-6.4 0.5z"/><path class="b" d="m428.2 518.5c-0.9 1.9-1.5 2.1-1.5 2.1-1.3 0.6-3 1.1-4.8 1.1-4.2 0.1-7.8-1.5-9.6-3.7-2.3-3-3-6.4-3.2-10.3-0.2-4 0.9-7.4 3.1-10.2 2.1-2.7 5.7-4 10.1-4 3 0 4.2 0.4 5 1.3 1 1 2.2 5 2.2 5h1v-0.4c-0.1-1.5-0.1-3-0.1-4.4 0-1.4 0-2.8 0.1-4.2v-0.3l-0.3-0.1c-2.3-0.5-4.8-0.7-7.4-0.7-5.5 0-10.8 1.9-14.3 5-4.1 3.6-6.4 8-6.4 13.5 0 5.4 1.9 9.7 5.8 12.8 3.6 2.9 8 4.4 13.5 4.4 3.4 0 6-0.3 9-1.3l0.3-0.1c0 0-0.2-3.3-0.2-8.9h-1.1c0.2 0-0.5 2-1.2 3.4z"/><path fill-rule="evenodd" class="b" d="m461.8 499.5h-0.8c-1.1-2.9-1.9-4.6-2.4-5.2-0.6-0.7-1.7-1-3.4-1-0.3 0-1.1 0-2.1 0.1-1 0-1.4 0.1-2.1 0.1v23.5c0 2.8 0.3 4 0.8 4.7 0.4 0.5 1.5 1.2 4.4 2.2v1q-8-0.6-15.9 0v-1c2.9-0.9 3.9-1.7 4.4-2.2 0.6-0.6 0.8-1.8 0.8-4.7v-23.5c-0.8 0-1.1 0-2.2-0.1-1.1 0-1.8-0.1-2.1-0.1-1.6 0-2.8 0.2-3.4 1-0.5 0.6-1.2 2.3-2.3 5.2h-0.8v-9.2q13.5 0.6 27 0v9.2z"/><path fill-rule="evenodd" class="b" d="m493.2 494.9c2.9 3 4.3 7 4.3 11.9 0.1 5.3-1.4 9.8-4.3 13.3-3.1 3.8-7.3 5.7-12.5 5.7q-7.4 0-12-5.1c-3-3.3-4.5-7.4-4.5-12.4 0-5.3 1.6-9.6 4.7-13 3.2-3.4 7.4-5.1 12.7-5.1 4.9 0 8.8 1.6 11.6 4.7zm-12.2-1.5q-5 0-7.8 3.9c-1.7 2.3-2.5 5.2-2.5 8.7q0 6.8 2.1 11.1c1.8 3.9 4.6 5.8 8.5 5.8 3.4 0 5.9-1.4 7.7-4.3 1.5-2.4 2.2-5.5 2.2-9.2 0-10.9-3.4-16.1-10.2-16z"/><path fill-rule="evenodd" class="b" d="m533.5 523.8v1.3h-0.4c-1.2-0.2-2.8-0.2-4.2-0.2-1.4 0-2.8 0.1-4.1 0.2l-0.3-0.2c-3.2-5.5-6.3-10.7-10.5-16.2h-3.5c0 0.8 0 7.1 0 8.2-0.1 1.1-0.1 2.2-0.1 2.5 0 1.4 0.3 2.1 0.8 2.5 1.3 1.1 5 2.1 5 2.1v1.1h-0.4c-2.5-0.2-5.1-0.3-7.7-0.3q-3.9 0-8.1 0.3h-0.4l0.2-1.2c0 0 4.1-0.7 4.5-2.2 0.1-0.6 0.3-2 0.3-3.8v-19.2c0-2.4 0-3.9-0.1-4.2-0.5-2.4-5.6-2.8-5.6-2.8v-1.4h0.4c1.7 0.2 3.5 0.3 5.6 0.3 1.2 0 3.7 0 6.1-0.1 2.5-0.2 4.3-0.2 5.6-0.2q4.7 0 7.8 1.8c2.6 1.5 3.9 3.7 3.9 6.7 0 4.8-2.6 7.9-8.1 8.9 1.8 2.9 3.5 5.8 5.3 8.7 3 4.4 5.6 6.8 8 7.4zm-13.8-19.4c1.7-1 2.6-2.5 2.6-5 0-4.1-2.2-6-7.4-6h-4.6v12h3.4c2.7 0 4.8-0.3 6-1z"/><path fill-rule="evenodd" class="b" d="m566.5 517.8c0 0 1.1 3.2 1.8 3.9 1 1 3.9 1.8 3.9 1.8v1.3h-0.3c-2.6-0.2-5.2-0.3-7.7-0.3-2.5 0-4.9 0.1-7.1 0.3h-0.3v-1.3l0.2-0.1c1.6-0.3 3.1-0.8 4.6-1.4-1-3.3-1.8-6.1-2.7-8l-6.2-0.1h-5.6c-0.9 2-1.8 4.3-3.2 8l4.2 1.6v1.3h-0.4c-2-0.2-3.9-0.3-5.8-0.3q-2.9 0-5.7 0.3h-0.4v-1.3c0 0 3.2-0.9 4.1-2.6 0.7-1.3 1-2.5 1.7-4 4.4-10.2 6.1-14.2 11.3-26.5l0.1-0.2h2.4l0.1 0.2c1.7 4.4 4.2 10.9 11 27.4zm-8.8-6.2l-4.8-12.6-5 12.6z"/></svg>