<?xml version="1.0" encoding="UTF-8" standalone="no"?>
<!DOCTYPE svg PUBLIC "-//W3C//DTD SVG 1.1//EN" "http://www.w3.org/Graphics/SVG/1.1/DTD/svg11.dtd">
<svg xmlns="http://www.w3.org/2000/svg" version="1.1" viewBox="0.00 0.00 1024.00 1024.00">
<path fill="#1ed760" d="
  M 1022.40 512.11
  A 510.42 510.42 0.0 0 1 511.98 1022.53
  A 510.42 510.42 0.0 0 1 1.56 512.11
  A 510.42 510.42 0.0 0 1 511.98 1.69
  A 510.42 510.42 0.0 0 1 1022.40 512.11
  Z
  M 324.01 374.06
  C 410.69 363.45 498.62 365.20 584.92 378.40
  C 663.12 390.36 741.20 412.63 810.30 451.98
  Q 819.79 457.39 824.79 458.89
  C 847.46 465.71 872.06 454.12 881.61 432.85
  C 889.96 414.26 885.95 392.66 871.31 378.68
  Q 866.66 374.24 854.78 367.53
  C 796.33 334.54 732.78 312.10 667.18 297.11
  C 555.15 271.51 438.49 265.49 324.33 278.00
  C 284.85 282.33 245.68 289.25 207.37 299.77
  Q 192.01 303.99 188.27 305.61
  C 166.03 315.23 153.86 340.70 161.56 363.95
  C 168.19 383.95 187.34 398.21 209.23 397.11
  Q 214.40 396.85 223.56 394.26
  Q 272.98 380.31 324.01 374.06
  Z
  M 241.28 553.59
  C 356.24 518.96 481.22 519.66 597.23 548.32
  C 650.39 561.46 701.72 581.26 748.94 609.11
  Q 757.88 614.39 762.64 615.87
  C 779.71 621.21 797.22 614.94 807.40 600.57
  C 817.72 585.99 816.35 564.72 804.03 551.28
  Q 800.41 547.32 793.02 542.84
  C 731.29 505.39 661.82 479.84 591.33 464.83
  C 474.99 440.04 351.23 440.77 236.19 472.34
  Q 221.05 476.49 217.13 478.29
  C 178.80 495.91 190.69 551.88 232.24 554.16
  Q 238.28 554.49 241.28 553.59
  Z
  M 262.63 697.31
  C 412.33 664.24 567.44 667.99 701.15 747.62
  Q 706.16 750.61 709.29 751.56
  C 739.95 760.89 763.68 724.66 743.02 700.62
  Q 739.40 696.41 729.89 690.78
  C 584.29 604.64 412.87 598.75 251.56 634.68
  Q 237.18 637.88 235.05 638.71
  C 211.19 648.10 208.43 679.65 228.71 694.28
  C 239.26 701.88 248.98 700.33 262.63 697.31
  Z"
/>
</svg>
